<svg width="60" height="60" viewBox="0 0 60 60" fill="none" xmlns="http://www.w3.org/2000/svg">
<rect x="0.5" y="0.5" width="59" height="59" rx="29.5" fill="white"/>
<rect x="0.5" y="0.5" width="59" height="59" rx="29.5" stroke="#E9EAEB"/>
<path d="M45.105 29.9995C45.105 38.3418 38.3423 45.1045 30 45.1045C21.6578 45.1045 14.895 38.3418 14.895 29.9995C14.895 21.6573 21.6578 14.8945 30 14.8945C38.3423 14.8945 45.105 21.6573 45.105 29.9995ZM20.7377 29.9995C20.7377 35.115 24.8846 39.2619 30 39.2619C35.1155 39.2619 39.2624 35.115 39.2624 29.9995C39.2624 24.8841 35.1155 20.7372 30 20.7372C24.8846 20.7372 20.7377 24.8841 20.7377 29.9995Z" fill="#598303"/>
<mask id="path-3-inside-1_776_19605" fill="white">
<path d="M30 14.8945C26.315 14.8945 22.7571 16.2416 19.9961 18.6822C17.2351 21.1227 15.4615 24.4884 15.0092 28.1456C14.5569 31.8027 15.4571 35.4991 17.5404 38.5387C19.6236 41.5784 22.7461 43.7517 26.3201 44.6494L27.7435 38.9828C25.552 38.4323 23.6372 37.0996 22.3598 35.2357C21.0824 33.3718 20.5304 31.1052 20.8077 28.8627C21.0851 26.6201 22.1726 24.5563 23.8656 23.0598C25.5587 21.5632 27.7404 20.7372 30 20.7372V14.8945Z"/>
</mask>
<path d="M30 14.8945C26.315 14.8945 22.7571 16.2416 19.9961 18.6822C17.2351 21.1227 15.4615 24.4884 15.0092 28.1456C14.5569 31.8027 15.4571 35.4991 17.5404 38.5387C19.6236 41.5784 22.7461 43.7517 26.3201 44.6494L27.7435 38.9828C25.552 38.4323 23.6372 37.0996 22.3598 35.2357C21.0824 33.3718 20.5304 31.1052 20.8077 28.8627C21.0851 26.6201 22.1726 24.5563 23.8656 23.0598C25.5587 21.5632 27.7404 20.7372 30 20.7372V14.8945Z" fill="white" stroke="#598303" stroke-width="2" mask="url(#path-3-inside-1_776_19605)"/>
</svg>
