<svg width="100" height="100" viewBox="0 0 100 100" fill="none" xmlns="http://www.w3.org/2000/svg">
<path d="M0 50C0 22.3858 22.3858 0 50 0C77.6142 0 100 22.3858 100 50C100 77.6142 77.6142 100 50 100C22.3858 100 0 77.6142 0 50Z" fill="#F0F3E5"/>
<g clip-path="url(#clip0_776_19649)">
<path d="M74.0008 65.1994C73.9984 64.6733 73.8233 64.1626 73.5024 63.7457C73.1815 63.3288 72.7326 63.0289 72.2247 62.892C72.6622 61.8201 72.2634 60.5885 71.2806 59.9761C71.4882 59.6186 71.5986 59.213 71.6009 58.7995C71.6009 57.4742 70.5263 56.3996 69.201 56.3996H60.7785C58.3679 56.4032 55.9891 56.95 53.8189 57.9996H51.6015V57.1996C51.6015 56.9874 51.5172 56.784 51.3672 56.6339C51.2171 56.4839 51.0137 56.3996 50.8015 56.3996H45.2017V57.9996H50.0015V69.1992H45.2017V70.7992H50.8015C51.0137 70.7992 51.2171 70.7149 51.3672 70.5649C51.5172 70.4149 51.6015 70.2114 51.6015 69.9992V69.1992H52.7213C52.9848 69.1993 53.2441 69.2644 53.4763 69.3888C53.7085 69.5131 53.9065 69.6929 54.0525 69.9121L55.51 72.0984C55.9246 72.7205 56.4955 73.2228 57.1653 73.5549C57.8351 73.8871 58.5804 74.0375 59.3266 73.991C60.0729 73.9446 60.7938 73.703 61.4173 73.2903C62.0407 72.8777 62.5449 72.3085 62.8792 71.6398L63.2952 70.7992H70.0009C70.3937 70.8005 70.7806 70.7051 71.1278 70.5214C71.4749 70.3377 71.7714 70.0714 71.9912 69.7459C72.211 69.4205 72.3472 69.0459 72.388 68.6553C72.4287 68.2647 72.3726 67.8701 72.2247 67.5063C72.7326 67.3696 73.1816 67.0697 73.5025 66.6529C73.8234 66.2361 73.9985 65.7254 74.0008 65.1994ZM71.6009 65.9993H62.8011V67.5993H70.0009C70.2131 67.5993 70.4166 67.6836 70.5666 67.8336C70.7166 67.9836 70.8009 68.1871 70.8009 68.3993C70.8009 68.6114 70.7166 68.8149 70.5666 68.9649C70.4166 69.115 70.2131 69.1992 70.0009 69.1992H59.6012V70.7992H61.5066L61.4441 70.9238C61.2351 71.3419 60.92 71.6977 60.5303 71.9557C60.1406 72.2136 59.6899 72.3647 59.2235 72.3938C58.757 72.4228 58.2911 72.3289 57.8723 72.1214C57.4535 71.9139 57.0966 71.6001 56.8372 71.2113L55.3795 69.0238C55.088 68.5858 54.6929 68.2266 54.2291 67.9781C53.7654 67.7296 53.2475 67.5994 52.7213 67.5993H51.6014V59.5995H54.0013C54.1251 59.6008 54.2474 59.5734 54.3588 59.5194C56.3526 58.5237 58.55 58.0034 60.7786 57.9995H69.201C69.4131 57.9995 69.6166 58.0838 69.7666 58.2338C69.9167 58.3838 70.0009 58.5873 70.0009 58.7994C70.0009 59.0116 69.9167 59.2151 69.7666 59.3651C69.6166 59.5151 69.4131 59.5994 69.201 59.5994H62.8011V61.1994H70.0009C70.2131 61.1994 70.4166 61.2837 70.5666 61.4337C70.7166 61.5837 70.8009 61.7872 70.8009 61.9994C70.8009 62.2115 70.7166 62.415 70.5666 62.565C70.4166 62.715 70.2131 62.7993 70.0009 62.7993H64.4011V64.3993H71.6009C71.8131 64.3993 72.0165 64.4836 72.1666 64.6336C72.3166 64.7836 72.4009 64.9871 72.4009 65.1993C72.4009 65.4114 72.3166 65.6149 72.1666 65.7649C72.0165 65.915 71.8131 65.9992 71.6009 65.9992M71.6415 37.1256L70.8009 36.7056V30.0005C70.8022 29.6077 70.7067 29.2207 70.523 28.8736C70.3392 28.5265 70.0729 28.23 69.7473 28.0102C69.422 27.7904 69.0475 27.654 68.6569 27.6132C68.2664 27.5724 67.8718 27.6284 67.508 27.7763C67.3733 27.2671 67.074 26.8168 66.6567 26.4955C66.2394 26.1742 65.7275 26 65.2008 26C64.6742 26 64.1623 26.1742 63.745 26.4955C63.3276 26.8168 63.0283 27.2671 62.8936 27.7763C61.8215 27.3393 60.5902 27.7377 59.9777 28.7204C59.6202 28.513 59.2146 28.4027 58.8013 28.4004C57.4755 28.4004 56.4013 29.4751 56.4013 30.8004V39.2224C56.4043 41.6334 56.9513 44.0122 58.0013 46.1824V48.4H57.2013C56.9891 48.4 56.7857 48.4842 56.6356 48.6343C56.4856 48.7843 56.4013 48.9878 56.4013 49.1999V54.7998H58.0013V49.9999H69.201V54.7998H70.8009V49.1999C70.8009 48.9878 70.7166 48.7843 70.5666 48.6343C70.4166 48.4842 70.2131 48.4 70.0009 48.4H69.201V47.284C69.201 47.0206 69.266 46.7613 69.3903 46.529C69.5146 46.2968 69.6943 46.0988 69.9134 45.9527L72.1001 44.4954C72.722 44.0805 73.2241 43.5096 73.5562 42.8398C73.8882 42.1699 74.0385 41.4246 73.9921 40.6785C73.9457 39.9323 73.7041 39.2114 73.2916 38.5879C72.8791 37.9644 72.3101 37.4601 71.6415 37.1256ZM71.2125 43.164L69.0256 44.6215C68.5869 44.9133 68.2273 45.3092 67.9788 45.7737C67.7302 46.2382 67.6004 46.757 67.601 47.2839V48.3999H59.6012V45.9999C59.6024 45.8761 59.575 45.7536 59.5211 45.6421C58.5252 43.6484 58.0049 41.451 58.0012 39.2223V30.8004C58.0012 30.5882 58.0855 30.3847 58.2355 30.2347C58.3855 30.0847 58.589 30.0004 58.8012 30.0004C59.0133 30.0004 59.2168 30.0847 59.3668 30.2347C59.5169 30.3847 59.6011 30.5882 59.6011 30.8004V37.2002H61.2011V30.0004C61.2011 29.7882 61.2854 29.5847 61.4354 29.4347C61.5854 29.2847 61.7889 29.2004 62.0011 29.2004C62.2132 29.2004 62.4167 29.2847 62.5667 29.4347C62.7168 29.5847 62.801 29.7882 62.801 30.0004V35.6002H64.401V28.4004C64.401 28.1883 64.4853 27.9848 64.6353 27.8348C64.7853 27.6847 64.9888 27.6005 65.201 27.6005C65.4131 27.6005 65.6166 27.6847 65.7666 27.8348C65.9167 27.9848 66.001 28.1883 66.001 28.4004V37.2002H67.6009V30.0004C67.6009 29.7882 67.6852 29.5847 67.8352 29.4347C67.9852 29.2847 68.1887 29.2004 68.4009 29.2004C68.6131 29.2004 68.8165 29.2847 68.9666 29.4347C69.1166 29.5847 69.2009 29.7882 69.2009 30.0004V40.4001H70.8008V38.4942L70.9255 38.5567C71.3436 38.7658 71.6994 39.081 71.9574 39.4707C72.2154 39.8605 72.3664 40.3112 72.3955 40.7777C72.4246 41.2442 72.3306 41.7102 72.123 42.129C71.9154 42.5478 71.6015 42.9047 71.2126 43.164" fill="#598303"/>
<path d="M28.3611 62.874L29.202 63.294V69.9996C29.1993 70.7967 29.5942 71.5432 30.2552 71.9897C30.9162 72.4362 31.756 72.5237 32.4945 72.2233C32.6292 72.7326 32.9285 73.1831 33.3459 73.5045C33.7632 73.8259 34.2752 74.0002 34.802 74.0003C35.3287 74.0002 35.8406 73.8258 36.2579 73.5044C36.6752 73.183 36.9744 72.7326 37.1089 72.2233C38.1812 72.6608 39.4123 72.2623 40.0248 71.2796C40.3826 71.4868 40.7883 71.5971 41.2018 71.5995C42.5272 71.5995 43.6017 70.525 43.6017 69.1996V60.777C43.5982 58.3665 43.0513 55.9877 42.0018 53.8175V51.6H42.8017C43.0139 51.6 43.2174 51.5157 43.3674 51.3657C43.5174 51.2157 43.6017 51.0122 43.6017 50.8V45.2002H42.0018V50.0001H30.8021V45.2002H29.2021V50.8C29.2021 51.0122 29.2864 51.2157 29.4364 51.3657C29.5865 51.5157 29.79 51.6 30.0021 51.6H30.8021V52.7199C30.802 52.9833 30.7369 53.2427 30.6126 53.4749C30.4882 53.7072 30.3084 53.9051 30.0891 54.0511L27.9029 55.5046C27.2808 55.9194 26.7786 56.4902 26.4465 57.16C26.1144 57.8299 25.964 58.5752 26.0104 59.3214C26.0568 60.0675 26.2983 60.7884 26.7108 61.4119C27.1234 62.0354 27.6924 62.5396 28.3611 62.874ZM28.7901 56.8359L30.977 55.3781C31.4151 55.0867 31.7744 54.6916 32.023 54.2278C32.2716 53.7641 32.4018 53.2461 32.4019 52.72V51.6H40.4017V53.9999C40.4014 54.124 40.4302 54.2465 40.4857 54.3574C41.4799 56.3516 41.9988 58.549 42.0017 60.7772V69.1996C42.0017 69.4118 41.9174 69.6152 41.7674 69.7653C41.6173 69.9153 41.4139 69.9996 41.2017 69.9996C40.9895 69.9996 40.786 69.9153 40.636 69.7653C40.486 69.6152 40.4017 69.4118 40.4017 69.1996V62.7998H38.8018V69.9996C38.8018 70.2117 38.7175 70.4152 38.5675 70.5652C38.4174 70.7153 38.214 70.7995 38.0018 70.7995C37.7896 70.7995 37.5861 70.7153 37.4361 70.5652C37.2861 70.4152 37.2018 70.2117 37.2018 69.9996V64.3997H35.6019V71.5995C35.6019 71.8117 35.5176 72.0152 35.3675 72.1652C35.2175 72.3152 35.014 72.3995 34.8019 72.3995C34.5897 72.3995 34.3862 72.3152 34.2362 72.1652C34.0862 72.0152 34.0019 71.8117 34.0019 71.5995V62.7998H32.4019V69.9996C32.4019 70.2117 32.3177 70.4152 32.1676 70.5652C32.0176 70.7153 31.8141 70.7995 31.602 70.7995C31.3898 70.7995 31.1863 70.7153 31.0363 70.5652C30.8863 70.4152 30.802 70.2117 30.802 69.9996V59.5999H29.202V61.5053L29.077 61.4396C28.6591 61.2305 28.3033 60.9154 28.0454 60.5256C27.7875 60.1359 27.6364 59.6853 27.6074 59.2188C27.5783 58.7524 27.6722 58.2865 27.8798 57.8677C28.0873 57.449 28.4012 57.0921 28.79 56.8328L28.7901 56.8359Z" fill="#598303"/>
<path d="M27.7779 37.1067C27.3404 38.179 27.7393 39.4102 28.7221 40.0227C28.5146 40.3803 28.4042 40.7861 28.4021 41.1996C28.4021 42.525 29.4764 43.5995 30.802 43.5995H39.2241C41.6348 43.5961 44.0138 43.0492 46.1841 41.9996H48.4016V42.7996C48.4016 43.0117 48.4859 43.2152 48.6359 43.3652C48.7859 43.5153 48.9894 43.5995 49.2016 43.5995H54.8014V41.9996H50.0016V30.7999H54.8014V29.2H49.2016C48.9894 29.2 48.7859 29.2843 48.6359 29.4343C48.4859 29.5843 48.4016 29.7878 48.4016 29.9999V30.7999H47.2856C47.0222 30.7999 46.7628 30.7348 46.5306 30.6104C46.2984 30.486 46.1004 30.3062 45.9544 30.0869L44.4966 27.9008C44.082 27.2787 43.5111 26.7764 42.8413 26.4443C42.1715 26.1121 41.4261 25.9618 40.6799 26.0083C39.9338 26.0548 39.213 26.2964 38.5895 26.7089C37.9661 27.1215 37.4619 27.6905 37.1273 28.359L36.7074 29.2H30.0021C29.6094 29.1986 29.2223 29.2939 28.8751 29.4776C28.528 29.6612 28.2314 29.9276 28.0115 30.253C27.7917 30.5785 27.6555 30.953 27.6147 31.3435C27.574 31.7341 27.63 32.1287 27.7779 32.4925C27.2687 32.6271 26.8183 32.9264 26.497 33.3438C26.1757 33.7612 26.0014 34.2731 26.0015 34.7998C26.0014 35.3265 26.1757 35.8384 26.497 36.2557C26.8183 36.673 27.2687 36.9722 27.7779 37.1067ZM28.4022 33.9998H37.2019V32.3999H30.0021C29.79 32.3999 29.5865 32.3156 29.4365 32.1656C29.2865 32.0155 29.2022 31.8121 29.2022 31.5999C29.2022 31.3877 29.2865 31.1843 29.4365 31.0342C29.5865 30.8842 29.79 30.7999 30.0021 30.7999H40.4018V29.2H38.496L38.5585 29.075C38.7675 28.6569 39.0827 28.3012 39.4724 28.0432C39.8622 27.7852 40.3128 27.6342 40.7793 27.6051C41.2457 27.576 41.7117 27.67 42.1304 27.8776C42.5492 28.0851 42.9061 28.399 43.1654 28.7879L44.6231 30.9748C44.9149 31.4135 45.3108 31.7732 45.7753 32.0218C46.2398 32.2704 46.7587 32.4003 47.2855 32.3998H48.4015V40.3995H46.0016C45.8774 40.3992 45.7549 40.428 45.6439 40.4835C43.6498 41.4781 41.4524 41.997 39.2241 41.9995H30.8021C30.59 41.9995 30.3865 41.9152 30.2365 41.7652C30.0864 41.6152 30.0021 41.4117 30.0021 41.1995C30.0021 40.9874 30.0864 40.7839 30.2365 40.6338C30.3865 40.4838 30.59 40.3995 30.8021 40.3995H37.2019V38.7996H30.0021C29.79 38.7996 29.5865 38.7153 29.4365 38.5653C29.2865 38.4153 29.2022 38.2118 29.2022 37.9996C29.2022 37.7874 29.2865 37.584 29.4365 37.4339C29.5865 37.2839 29.79 37.1996 30.0021 37.1996H35.602V35.5997H28.4022C28.19 35.5997 27.9866 35.5154 27.8365 35.3654C27.6865 35.2153 27.6022 35.0119 27.6022 34.7997C27.6022 34.5875 27.6865 34.3841 27.8365 34.234C27.9866 34.084 28.19 33.9998 28.4022 33.9998Z" fill="#598303"/>
</g>
<defs>
<clipPath id="clip0_776_19649">
<rect width="48" height="48" fill="white" transform="translate(26 26)"/>
</clipPath>
</defs>
</svg>
